<svg width="149" height="46" viewBox="0 0 149 46" fill="none" xmlns="http://www.w3.org/2000/svg">
<g filter="url(#filter0_d_2392_57471)">
<path d="M0 8C0 3.58172 3.58172 0 8 0H141C145.418 0 149 3.58172 149 8V32C149 36.4183 145.418 40 141 40H8C3.58172 40 0 36.4183 0 32V8Z" fill="#FDFDFD"/>
<path d="M17.98 14.316H19.168V20.724H17.98V14.316ZM12.028 21.264H19.168V24.936H17.98V22.212H12.028V21.264ZM10.84 15.012H16.636V15.96H14.344V16.188C14.344 17.556 15.34 18.852 16.96 19.392L16.36 20.304C15.148 19.908 14.248 19.08 13.768 18.012C13.3 19.152 12.388 20.064 11.128 20.496L10.528 19.584C12.184 19.008 13.144 17.628 13.144 16.188V15.96H10.84V15.012ZM26.4763 16.812H28.3963V14.316H29.5723V20.1H28.3963V17.772H26.4763V16.812ZM22.6843 20.568H23.8603V21.756H28.4083V20.568H29.5723V24.804H22.6843V20.568ZM23.8603 22.68V23.844H28.4083V22.68H23.8603ZM21.1363 14.892H26.8243V15.828H24.5803V15.924C24.5803 17.256 25.5043 18.576 27.1003 19.128L26.5123 20.052C25.3363 19.644 24.4723 18.804 24.0163 17.76C23.5603 18.912 22.6483 19.836 21.3883 20.292L20.7883 19.356C22.4323 18.768 23.3923 17.388 23.3923 15.936V15.828H21.1363V14.892ZM41.4222 14.316H42.6102V22.188H41.4222V19.788H38.7702V18.828H41.4222V17.4H38.9262C38.1822 19.056 36.5982 20.292 34.4622 20.988L33.9582 20.04C36.3342 19.272 37.9062 17.844 38.1342 16.08H34.5102V15.132H39.4062C39.4062 15.588 39.3582 16.02 39.2622 16.44H41.4222V14.316ZM35.7942 21.432H36.9822V23.76H42.8622V24.72H35.7942V21.432ZM49.8825 16.992H51.7785V14.316H52.9545V20.652H51.7785V17.964H49.8825V16.992ZM44.5185 14.988H50.2065V15.936H47.9625V16.176C47.9625 17.508 48.8865 18.816 50.4825 19.368L49.8945 20.292C48.7065 19.884 47.8545 19.044 47.3985 18C46.9425 19.152 46.0305 20.076 44.7705 20.52L44.1705 19.596C45.8145 19.02 46.7745 17.628 46.7745 16.176V15.936H44.5185V14.988ZM45.8145 21.192H52.9545V24.936H51.7785V22.152H45.8145V21.192ZM59.3508 14.496C61.7148 14.496 63.1308 15.132 63.1308 16.32C63.1308 17.496 61.7148 18.144 59.3508 18.144C56.9748 18.144 55.5708 17.496 55.5708 16.32C55.5708 15.132 56.9748 14.496 59.3508 14.496ZM59.3508 15.36C57.6948 15.36 56.7828 15.696 56.7828 16.32C56.7828 16.944 57.6948 17.268 59.3508 17.268C60.9948 17.268 61.9068 16.944 61.9068 16.32C61.9068 15.696 60.9948 15.36 59.3508 15.36ZM54.5508 18.78H64.1388V19.728H54.5508V18.78ZM55.6788 20.508H62.9388V23.028H56.8668V23.94H63.2388V24.84H55.7148V22.188H61.7748V21.396H55.6788V20.508ZM75.4607 14.316H76.5887V24.936H75.4607V19.512H74.1767V24.396H73.0727V14.532H74.1767V18.552H75.4607V14.316ZM68.0447 15.564H69.2087V21.228C70.1567 21.204 71.2007 21.132 72.3767 20.904L72.4967 21.924C71.0807 22.188 69.8567 22.248 68.7407 22.248H68.0447V15.564ZM79.1929 14.484H80.3569V15.36H85.1089V14.484H86.2849V18H83.3089V18.9H87.5209V19.836H77.9329V18.9H82.1209V18H79.1929V14.484ZM80.3569 16.248V17.112H85.1089V16.248H80.3569ZM79.0609 20.592H86.3209V23.076H80.2489V23.94H86.6209V24.84H79.0969V22.248H85.1569V21.468H79.0609V20.592ZM95.1348 14.676H96.3708V15.228C96.3708 16.62 98.0148 17.964 100.127 18.264L99.6588 19.2C97.9188 18.924 96.4428 18.024 95.7588 16.788C95.0748 18.036 93.5988 18.924 91.8468 19.2L91.3788 18.264C93.5148 17.964 95.1348 16.644 95.1348 15.228V14.676ZM90.9468 20.22H100.547V21.192H96.3108V24.936H95.1348V21.192H90.9468V20.22ZM106.517 20.82H107.645V21.3C107.645 22.212 108.077 23.16 109.013 23.748C109.961 23.112 110.417 22.116 110.417 21.3V20.82H111.569V21.3C111.569 22.416 112.289 23.472 113.645 23.916L113.069 24.792C112.049 24.432 111.341 23.736 110.981 22.86C110.633 23.712 110.009 24.48 109.049 24.888C108.041 24.504 107.405 23.76 107.081 22.896C106.697 23.724 106.013 24.42 105.029 24.792L104.441 23.916C105.797 23.436 106.517 22.332 106.517 21.3V20.82ZM111.521 14.328H112.721V20.364H111.521V14.328ZM106.985 14.916C108.605 14.916 109.793 15.936 109.793 17.412C109.793 18.888 108.605 19.908 106.985 19.908C105.365 19.908 104.177 18.888 104.177 17.412C104.177 15.936 105.365 14.916 106.985 14.916ZM106.985 15.888C106.025 15.888 105.317 16.5 105.317 17.412C105.317 18.336 106.025 18.936 106.985 18.936C107.957 18.936 108.653 18.336 108.653 17.412C108.653 16.5 107.957 15.888 106.985 15.888ZM117.173 15.096C118.613 15.096 119.669 16.32 119.837 18.276H121.949V14.304H123.125V24.948H121.949V19.224H119.849C119.729 21.3 118.649 22.584 117.173 22.584C115.625 22.584 114.497 21.132 114.497 18.828C114.497 16.548 115.625 15.096 117.173 15.096ZM117.173 16.164C116.261 16.164 115.613 17.172 115.613 18.828C115.613 20.496 116.261 21.516 117.173 21.516C118.121 21.516 118.745 20.496 118.745 18.828C118.745 17.172 118.121 16.164 117.173 16.164ZM124.697 22.656H126.965V19.884C126.113 19.404 125.597 18.636 125.597 17.7C125.597 16.008 127.241 14.916 129.497 14.916C131.765 14.916 133.397 16.008 133.397 17.7C133.397 18.636 132.893 19.392 132.041 19.884V22.656H134.321V23.616H124.697V22.656ZM129.497 15.852C127.877 15.852 126.749 16.56 126.749 17.7C126.749 18.84 127.877 19.548 129.497 19.548C131.105 19.548 132.245 18.84 132.245 17.7C132.245 16.56 131.105 15.852 129.497 15.852ZM128.141 22.656H130.865V20.328C130.445 20.424 129.989 20.472 129.497 20.472C129.017 20.472 128.561 20.424 128.141 20.328V22.656ZM137.37 15.072L137.19 21.744H136.11L135.906 15.072H137.37ZM136.662 22.848C137.07 22.848 137.346 23.124 137.346 23.532C137.346 23.952 137.07 24.24 136.662 24.24C136.242 24.24 135.954 23.952 135.954 23.532C135.954 23.124 136.242 22.848 136.662 22.848Z" fill="#232323"/>
<path d="M74.866 45.5C74.4811 46.1667 73.5189 46.1667 73.134 45.5L69.6699 39.5C69.285 38.8333 69.7661 38 70.5359 38H77.4641C78.2339 38 78.715 38.8333 78.3301 39.5L74.866 45.5Z" fill="#FDFDFD"/>
</g>
<defs>
<filter id="filter0_d_2392_57471" x="-11" y="-11" width="179" height="76" filterUnits="userSpaceOnUse" color-interpolation-filters="sRGB">
<feFlood flood-opacity="0" result="BackgroundImageFix"/>
<feColorMatrix in="SourceAlpha" type="matrix" values="0 0 0 0 0 0 0 0 0 0 0 0 0 0 0 0 0 0 127 0" result="hardAlpha"/>
<feOffset dx="4" dy="4"/>
<feGaussianBlur stdDeviation="7.5"/>
<feComposite in2="hardAlpha" operator="out"/>
<feColorMatrix type="matrix" values="0 0 0 0 0.00392157 0 0 0 0 0.00784314 0 0 0 0 0.0117647 0 0 0 0.1 0"/>
<feBlend mode="normal" in2="BackgroundImageFix" result="effect1_dropShadow_2392_57471"/>
<feBlend mode="normal" in="SourceGraphic" in2="effect1_dropShadow_2392_57471" result="shape"/>
</filter>
</defs>
</svg>
