<svg width="102" height="46" viewBox="0 0 102 46" fill="none" xmlns="http://www.w3.org/2000/svg">
<g filter="url(#filter0_d_2392_57405)">
<path d="M0 8C0 3.58172 3.58172 0 8 0H94C98.4183 0 102 3.58172 102 8V32C102 36.4183 98.4183 40 94 40H8C3.58172 40 0 36.4183 0 32V8Z" fill="#FDFDFD"/>
<path d="M17.464 14.304H18.652V18.528H20.272V19.5H18.652V24.936H17.464V14.304ZM15.88 15.432C15.88 18.516 14.56 21.24 11.092 22.98L10.432 22.08C13.048 20.748 14.464 18.852 14.692 16.392H10.96V15.432H15.88ZM26.3683 15.012C26.3683 15.408 26.3323 15.78 26.2603 16.14H28.4083V14.316H29.5843V20.64H28.4083V19.344H25.8043V18.396H28.4083V17.088H25.9603C25.2523 18.744 23.6443 19.932 21.3883 20.544L20.9323 19.62C23.4043 18.948 24.8923 17.616 25.1083 15.96H21.4963V15.012H26.3683ZM22.4323 21.096H29.5843V24.912H28.4083V22.044H22.4323V21.096ZM38.7046 14.304H39.8926V24.948H38.7046V14.304ZM34.2526 15.096C35.8366 15.096 36.9766 16.548 36.9766 18.828C36.9766 21.132 35.8366 22.584 34.2526 22.584C32.6566 22.584 31.5166 21.132 31.5166 18.828C31.5166 16.548 32.6566 15.096 34.2526 15.096ZM34.2526 16.164C33.3046 16.164 32.6566 17.172 32.6566 18.828C32.6566 20.496 33.3046 21.516 34.2526 21.516C35.1886 21.516 35.8486 20.496 35.8486 18.828C35.8486 17.172 35.1886 16.164 34.2526 16.164ZM51.2265 14.304H52.4145V18.396H54.0705V19.38H52.4145V24.948H51.2265V14.304ZM44.6265 15.336H49.5705V16.284H45.8025V21.348C47.5545 21.336 48.8505 21.276 50.3385 21L50.4585 21.984C48.8385 22.284 47.4225 22.344 45.4785 22.344H44.6265V15.336ZM54.5508 20.148H64.1748V21.096H54.5508V20.148ZM55.7988 21.84H56.9748V23.772H63.2028V24.72H55.7988V21.84ZM55.7508 14.628H62.9508V17.388H56.9268V18.396H63.1788V19.296H55.7748V16.524H61.7868V15.528H55.7508V14.628ZM71.951 14.304H73.139V18.528H74.759V19.5H73.139V24.936H71.951V14.304ZM70.367 15.432C70.367 18.516 69.047 21.24 65.579 22.98L64.919 22.08C67.535 20.748 68.951 18.852 69.179 16.392H65.447V15.432H70.367ZM75.2873 22.656H77.5553V19.884C76.7033 19.404 76.1873 18.636 76.1873 17.7C76.1873 16.008 77.8313 14.916 80.0873 14.916C82.3553 14.916 83.9873 16.008 83.9873 17.7C83.9873 18.636 83.4833 19.392 82.6313 19.884V22.656H84.9113V23.616H75.2873V22.656ZM80.0873 15.852C78.4673 15.852 77.3393 16.56 77.3393 17.7C77.3393 18.84 78.4673 19.548 80.0873 19.548C81.6953 19.548 82.8353 18.84 82.8353 17.7C82.8353 16.56 81.6953 15.852 80.0873 15.852ZM78.7313 22.656H81.4553V20.328C81.0353 20.424 80.5793 20.472 80.0873 20.472C79.6073 20.472 79.1513 20.424 78.7313 20.328V22.656ZM88.3196 24.24C87.8996 24.24 87.6116 23.952 87.6116 23.532C87.6116 23.124 87.8996 22.848 88.3196 22.848C88.7276 22.848 89.0036 23.124 89.0036 23.532C89.0036 23.952 88.7276 24.24 88.3196 24.24ZM87.7316 21.756C87.7196 20.544 88.0676 19.812 88.9436 19.164C89.8316 18.504 90.0476 18.084 90.0836 17.556C90.1316 16.68 89.4716 16.068 88.5116 16.068C87.8036 16.068 87.1316 16.572 86.8436 17.292L85.7636 16.896C86.1956 15.732 87.3356 14.916 88.5116 14.916C90.1916 14.916 91.3076 16.02 91.2356 17.616C91.1996 18.432 90.7676 19.248 89.6396 20.1C89.0276 20.544 88.8716 20.844 88.8836 21.744L87.7316 21.756Z" fill="#232323"/>
<path d="M51.866 45.5C51.4811 46.1667 50.5189 46.1667 50.134 45.5L46.6699 39.5C46.285 38.8333 46.7661 38 47.5359 38H54.4641C55.2339 38 55.715 38.8333 55.3301 39.5L51.866 45.5Z" fill="#FDFDFD"/>
</g>
<defs>
<filter id="filter0_d_2392_57405" x="-11" y="-11" width="132" height="76" filterUnits="userSpaceOnUse" color-interpolation-filters="sRGB">
<feFlood flood-opacity="0" result="BackgroundImageFix"/>
<feColorMatrix in="SourceAlpha" type="matrix" values="0 0 0 0 0 0 0 0 0 0 0 0 0 0 0 0 0 0 127 0" result="hardAlpha"/>
<feOffset dx="4" dy="4"/>
<feGaussianBlur stdDeviation="7.5"/>
<feComposite in2="hardAlpha" operator="out"/>
<feColorMatrix type="matrix" values="0 0 0 0 0.00392157 0 0 0 0 0.00784314 0 0 0 0 0.0117647 0 0 0 0.1 0"/>
<feBlend mode="normal" in2="BackgroundImageFix" result="effect1_dropShadow_2392_57405"/>
<feBlend mode="normal" in="SourceGraphic" in2="effect1_dropShadow_2392_57405" result="shape"/>
</filter>
</defs>
</svg>
