<svg width="40" height="40" viewBox="0 0 40 40" fill="none" xmlns="http://www.w3.org/2000/svg">
<path d="M24 0C29.6005 0 32.4009 -9.11057e-05 34.54 1.08984C36.4216 2.04857 37.9514 3.5784 38.9102 5.45996C40.0001 7.59908 40 10.3995 40 16V24C40 29.6005 40.0001 32.4009 38.9102 34.54C37.9514 36.4216 36.4216 37.9514 34.54 38.9102C32.4009 40.0001 29.6005 40 24 40H16C10.3995 40 7.59908 40.0001 5.45996 38.9102C3.5784 37.9514 2.04857 36.4216 1.08984 34.54C-9.11057e-05 32.4009 0 29.6005 0 24V16C0 10.3995 -9.11057e-05 7.59908 1.08984 5.45996C2.04857 3.5784 3.5784 2.04857 5.45996 1.08984C7.59908 -9.10902e-05 10.3995 0 16 0H24ZM16.1582 11.2529C15.7026 10.7975 14.9634 10.7975 14.5078 11.2529L12.0332 13.7285C10.6665 15.0953 10.6665 17.3109 12.0332 18.6777L13.6826 20.3281L19.458 26.1025L21.1074 27.7529C22.4742 29.1197 24.6908 29.1196 26.0576 27.7529L28.5322 25.2773C28.9877 24.8217 28.9878 24.0835 28.5322 23.6279L26.0576 21.1533C25.602 20.6977 24.8628 20.6977 24.4072 21.1533L23.1699 22.3906C22.9421 22.6182 22.5725 22.6184 22.3447 22.3906L17.3955 17.4404C17.1677 17.2126 17.1677 16.843 17.3955 16.6152L18.6328 15.3779C19.0883 14.9223 19.0883 14.1841 18.6328 13.7285L16.1582 11.2529Z" fill="#2FC6DD"/>
</svg>
