<svg width="63" height="61" viewBox="0 0 63 61" fill="none" xmlns="http://www.w3.org/2000/svg">
<mask id="mask0_2392_57477" style="mask-type:alpha" maskUnits="userSpaceOnUse" x="16" y="6" width="42" height="42">
<circle cx="36.8793" cy="27.135" r="20.7898" transform="rotate(15 36.8793 27.135)" fill="#FFE5B6"/>
</mask>
<g mask="url(#mask0_2392_57477)">
<circle cx="36.7566" cy="27.5104" r="20.7898" fill="#FFE5B6"/>
<circle cx="23.1999" cy="39.7086" r="6.84694" transform="rotate(15 23.1999 39.7086)" fill="#FECC6E"/>
<circle cx="49.071" cy="38.3922" r="6.84694" transform="rotate(15 49.071 38.3922)" fill="#FECC6E"/>
</g>
<path d="M56.8736 21.3132C56.1524 18.6801 54.9196 16.2147 53.2456 14.058C51.5716 11.9013 49.4892 10.0954 47.1173 8.74345C44.7453 7.39151 42.1304 6.51998 39.4216 6.17864C36.7129 5.8373 33.9635 6.03282 31.3303 6.75405C28.6971 7.47528 26.2318 8.70809 24.0751 10.3821C21.9183 12.0561 20.1124 14.1385 18.7605 16.5104C17.4085 18.8823 16.537 21.4973 16.1957 24.206C15.8543 26.9148 16.0499 29.6642 16.7711 32.2974C20.6656 30.749 24.0751 29.1306 26.3922 24.206C35.6044 28.6327 47.1173 27.5122 56.8736 21.3132Z" fill="#FEBF4A"/>
<path d="M1.9889 33.2849C1.3581 33.0114 0.625022 33.301 0.351513 33.9318C0.078005 34.5626 0.367642 35.2957 0.998438 35.5692L1.9889 33.2849ZM16.0815 29.4202C14.6371 31.5156 12.2874 32.9976 9.66252 33.6923C7.03563 34.3876 4.24615 34.2636 1.9889 33.2849L0.998438 35.5692C3.84537 36.8036 7.21816 36.9148 10.2996 36.0993C13.383 35.2832 16.2875 33.5084 18.1315 30.8332L16.0815 29.4202Z" fill="#FEBF4A"/>
<path d="M17.0837 32.1624L11.0457 38.8714C10.9336 38.996 10.7329 38.9765 10.6469 38.8327L9.26071 36.5148C9.1749 36.3713 9.25226 36.1857 9.41442 36.145C12.5878 35.3489 14.4269 34.7491 17.0837 32.1624Z" fill="#FEBF4A"/>
<circle cx="5.72653" cy="5.72653" r="5.72653" transform="matrix(-0.965926 -0.258819 -0.258819 0.965926 37.5713 30.8007)" fill="white"/>
<circle cx="4.23265" cy="4.23265" r="4.23265" transform="matrix(-0.965926 -0.258819 -0.258819 0.965926 36.7031 32.1146)" fill="black"/>
<path d="M34.3791 28.7359C34.4723 28.5519 34.3987 28.3272 34.2147 28.234C34.0307 28.1408 33.806 28.2144 33.7127 28.3984L34.3791 28.7359ZM33.7127 28.3984L33.0376 29.731L33.704 30.0685L34.3791 28.7359L33.7127 28.3984Z" fill="black"/>
<circle cx="5.72653" cy="5.72653" r="5.72653" transform="matrix(-0.965926 -0.258819 -0.258819 0.965926 50.9971 29.7584)" fill="white"/>
<circle cx="4.23265" cy="4.23265" r="4.23265" transform="matrix(-0.965926 -0.258819 -0.258819 0.965926 48.3164 31.1021)" fill="black"/>
<path d="M47.8048 27.6937C47.898 27.5097 47.8245 27.285 47.6405 27.1917C47.4565 27.0985 47.2317 27.1721 47.1385 27.3561L47.8048 27.6937ZM47.1385 27.3561L46.4634 28.6888L47.1297 29.0263L47.8048 27.6937L47.1385 27.3561Z" fill="black"/>
<path d="M38.6187 5.57334L31.2736 5.64444C31.1346 5.64579 31.0207 5.53414 31.0194 5.39506L30.9963 3.01428L30.9754 0.853739C30.9731 0.617592 31.2679 0.508469 31.4199 0.689179L32.8754 2.41921C32.9267 2.48017 33.021 2.47878 33.0705 2.41631L34.6995 0.359188C34.799 0.233432 34.9893 0.231591 35.0913 0.355396L36.7597 2.3806C36.8104 2.4421 36.9047 2.44167 36.9548 2.37972L38.3766 0.62184C38.5251 0.43822 38.8219 0.541616 38.8242 0.777763L38.8451 2.9383L38.8681 5.31909C38.8695 5.45816 38.7578 5.572 38.6187 5.57334Z" fill="#FEBF4A"/>
<path fill-rule="evenodd" clip-rule="evenodd" d="M46.1692 51.4423C47.5719 50.8065 48.5515 49.361 48.5515 47.6796C48.5515 45.4107 46.768 43.5714 44.5678 43.5714C43.2345 43.5714 42.0542 44.2469 41.3311 45.2841C40.608 44.2469 39.4277 43.5714 38.0944 43.5714C36.761 43.5714 35.5807 44.2469 34.8576 45.2841C34.1345 44.2469 32.9542 43.5714 31.6209 43.5714C29.4208 43.5714 27.6372 45.4107 27.6372 47.6796C27.6372 49.2982 28.5449 50.6982 29.8641 51.3677C29.4677 51.6811 29.0879 52.0187 28.727 52.3795C26.455 54.6515 25.1057 57.0322 24.9204 60.1285C24.8958 60.5403 25.2329 60.8755 25.6454 60.8755H37.9699H50.2944C50.7069 60.8755 51.0439 60.5403 51.0193 60.1285C50.834 57.0322 49.4848 54.6515 47.2128 52.3795C46.8804 52.0471 46.5319 51.7345 46.1692 51.4423Z" fill="url(#paint0_linear_2392_57477)"/>
<defs>
<linearGradient id="paint0_linear_2392_57477" x1="37.9699" y1="43.5714" x2="37.9699" y2="61.6224" gradientUnits="userSpaceOnUse">
<stop stop-color="#FEBF4A"/>
<stop offset="1" stop-color="#FEBF4A" stop-opacity="0.3"/>
</linearGradient>
</defs>
</svg>
