<svg width="64" height="61" viewBox="0 0 64 61" fill="none" xmlns="http://www.w3.org/2000/svg">
<path fill-rule="evenodd" clip-rule="evenodd" d="M25.4733 42.8527H32.5821V59.0283L33.9436 59.3511C34.2307 59.4191 34.4365 59.7088 34.4365 60.0446V60.5302H32.5821H25.4733V57.3433V42.8527Z" fill="url(#paint0_linear_2392_57660)"/>
<path fill-rule="evenodd" clip-rule="evenodd" d="M25.6747 44.7277L19.3904 41.4048L11.8292 55.7045L10.4747 55.3534C10.1892 55.2793 9.87177 55.4392 9.71479 55.7361L9.48779 56.1654L11.1272 57.0322L17.4115 60.3551L18.9012 57.5378L25.6747 44.7277Z" fill="url(#paint1_linear_2392_57660)"/>
<mask id="mask0_2392_57660" style="mask-type:alpha" maskUnits="userSpaceOnUse" x="4" y="7" width="43" height="42">
<circle cx="20.7898" cy="20.7898" r="20.7898" transform="matrix(-0.965926 0.258819 0.258819 0.965926 40.1641 2.69666)" fill="#FFE5B6"/>
</mask>
<g mask="url(#mask0_2392_57660)">
<circle cx="20.7898" cy="20.7898" r="20.7898" transform="matrix(-0.965926 0.258819 0.258819 0.965926 40.5439 2.32129)" fill="#ACE8F1"/>
<circle cx="6.84694" cy="6.84694" r="6.84694" transform="matrix(-0.965926 0.258819 0.258819 0.965926 43.9844 32.3467)" fill="#58D1E4"/>
<circle cx="6.84694" cy="6.84694" r="6.84694" transform="matrix(-0.965926 0.258819 0.258819 0.965926 18.1133 31.0303)" fill="#58D1E4"/>
</g>
<path d="M4.98287 27.0625C5.18741 24.34 5.92619 21.6845 7.15701 19.2475C8.38784 16.8106 10.0866 14.6399 12.1563 12.8594C14.226 11.079 16.6262 9.72363 19.2197 8.87076C21.8132 8.01789 24.5493 7.6842 27.2718 7.88874C29.9943 8.09329 32.6498 8.83206 35.0868 10.0629C37.5238 11.2937 39.6945 12.9925 41.4749 15.0622C43.2554 17.1319 44.6107 19.5321 45.4636 22.1256C46.3165 24.7191 46.6501 27.4552 46.4456 30.1777C42.9064 30.1777 37.3043 27.436 36.6819 23.6531C30.3329 28.8816 12.1563 30.1777 4.98287 27.0625Z" fill="#2FC6DD"/>
<path d="M61.952 28.8835C62.6375 28.936 63.1507 29.5343 63.0982 30.2198C63.0457 30.9054 62.4474 31.4186 61.7619 31.3661L61.952 28.8835ZM45.805 27.6472L61.952 28.8835L61.7619 31.3661L45.6149 30.1297L45.805 27.6472Z" fill="#2FC6DD"/>
<path d="M45.8991 27.903L54.6798 25.7437C54.8378 25.7048 54.9899 25.8253 54.9883 25.988L54.9649 28.3181C54.9634 28.462 54.8407 28.5747 54.6973 28.5639L45.8991 27.903Z" fill="#2FC6DD"/>
<circle cx="31.9003" cy="35.8737" r="5.72653" transform="rotate(-15 31.9003 35.8737)" fill="white"/>
<circle cx="30.9388" cy="36.1314" r="4.23265" transform="rotate(-15 30.9388 36.1314)" fill="black"/>
<circle cx="18.4755" cy="34.8325" r="5.72653" transform="rotate(-15 18.4755 34.8325)" fill="white"/>
<circle cx="19.3265" cy="35.1198" r="4.23265" transform="rotate(-15 19.3265 35.1198)" fill="black"/>
<path fill-rule="evenodd" clip-rule="evenodd" d="M24.9219 47.8242C25.0366 47.8682 25.1636 47.8682 25.2784 47.8242L29.777 46.0997C30.1031 45.9747 30.4532 46.2154 30.4532 46.5646V50.3448C30.4532 50.6941 30.1031 50.9348 29.777 50.8098L25.2784 49.0853C25.1636 49.0413 25.0366 49.0413 24.9219 49.0853L20.4233 50.8098C20.0972 50.9348 19.7471 50.6941 19.7471 50.3448V46.5646C19.7471 46.2154 20.0972 45.9747 20.4233 46.0997L24.9219 47.8242Z" fill="#403B3B"/>
<defs>
<linearGradient id="paint0_linear_2392_57660" x1="29.9549" y1="42.8527" x2="29.9549" y2="57.0168" gradientUnits="userSpaceOnUse">
<stop stop-color="#403B3B" stop-opacity="0.3"/>
<stop offset="1" stop-color="#403B3B"/>
</linearGradient>
<linearGradient id="paint1_linear_2392_57660" x1="21.7129" y1="42.6329" x2="15.092" y2="55.1543" gradientUnits="userSpaceOnUse">
<stop stop-color="#403B3B" stop-opacity="0.3"/>
<stop offset="1" stop-color="#403B3B"/>
</linearGradient>
</defs>
</svg>
