<svg width="24" height="24" viewBox="0 0 24 24" fill="none" xmlns="http://www.w3.org/2000/svg">
<g id="icon">
<path id="Union" d="M15.5996 6C16.5523 6 17.3343 6.32886 18.002 7.01172C18.6704 7.6954 19 8.50516 19 9.5C19 10.3102 18.8087 11.0441 18.4287 11.7197C18.0609 12.3735 17.6163 12.9777 17.0928 13.5322L16.8633 13.7666L16.8623 13.7676L12.002 18.5889L7.17285 13.7695L7.16992 13.7666L6.93945 13.5312C6.48819 13.0543 6.09239 12.5402 5.75 11.9893L5.58301 11.7109C5.19464 11.0365 5 10.3058 5 9.5C5 8.56733 5.28997 7.79754 5.87695 7.1416L5.99805 7.01172C6.66573 6.32886 7.44766 6 8.40039 6C8.8916 6.00005 9.34704 6.0917 9.77539 6.27344L9.95801 6.35742C10.4591 6.60455 10.8833 6.93507 11.2383 7.35254L12 8.24805L12.7617 7.35254C13.0722 6.98733 13.4358 6.68859 13.8574 6.4541L14.042 6.35742C14.523 6.12022 15.0381 6.00006 15.5996 6Z" stroke="#6A6868" stroke-width="2"/>
</g>
</svg>
