<svg width="40" height="40" viewBox="0 0 40 40" fill="none" xmlns="http://www.w3.org/2000/svg">
<path fill-rule="evenodd" clip-rule="evenodd" d="M8.57145 0C3.83758 0 0 3.83755 0 8.57142V31.4285C0 36.1623 3.83758 40 8.57145 40H31.4288C36.1626 40 40 36.1623 40 31.4285V8.57142C40 3.83755 36.1626 0 31.4288 0H8.57145ZM33.8961 8.58383C33.8961 9.94738 32.7907 11.0528 31.4271 11.0528C30.0636 11.0528 28.9582 9.94738 28.9582 8.58383C28.9582 7.22026 30.0636 6.1149 31.4271 6.1149C32.7907 6.1149 33.8961 7.22026 33.8961 8.58383ZM20.0005 13.1524C16.2188 13.1524 13.1531 16.2181 13.1531 19.9998C13.1531 23.7815 16.2188 26.8471 20.0005 26.8471C23.7822 26.8471 26.8479 23.7815 26.8479 19.9998C26.8479 16.2181 23.7822 13.1524 20.0005 13.1524ZM9.86113 19.9998C9.86113 14.4 14.4007 9.86047 20.0005 9.86047C25.6003 9.86047 30.1399 14.4 30.1399 19.9998C30.1399 25.5995 25.6003 30.1391 20.0005 30.1391C14.4007 30.1391 9.86113 25.5995 9.86113 19.9998Z" fill="#2FC6DD"/>
</svg>
