<svg width="40" height="40" viewBox="0 0 40 40" fill="none" xmlns="http://www.w3.org/2000/svg">
<path d="M24 0C29.6005 0 32.4009 -9.11057e-05 34.54 1.08984C36.4216 2.04857 37.9514 3.5784 38.9102 5.45996C40.0001 7.59908 40 10.3995 40 16V24C40 29.6005 40.0001 32.4009 38.9102 34.54C37.9514 36.4216 36.4216 37.9514 34.54 38.9102C32.4009 40.0001 29.6005 40 24 40H16C10.3995 40 7.59908 40.0001 5.45996 38.9102C3.5784 37.9514 2.04857 36.4216 1.08984 34.54C-9.11057e-05 32.4009 0 29.6005 0 24V16C0 10.3995 -9.11057e-05 7.59908 1.08984 5.45996C2.04857 3.5784 3.5784 2.04857 5.45996 1.08984C7.59908 -9.10902e-05 10.3995 0 16 0H24ZM19.9961 7.5C11.716 7.5 5.00204 12.8268 5.00195 19.4004C5.00195 23.6505 7.80678 27.3735 12.0312 29.4873L10.5107 34.9561C10.5107 34.9561 10.4822 35.2113 10.6455 35.3076C10.8058 35.4022 10.9988 35.3327 11.0059 35.3301C11.4789 35.2621 16.4688 31.7328 17.3428 31.1201C18.2044 31.2448 19.1001 31.3066 20.0068 31.3066C28.2869 31.3066 35.0019 25.9798 35.002 19.4062C35.002 12.8327 28.2762 7.50004 19.9961 7.5Z" fill="#2FC6DD"/>
<path d="M13.51 23.0842C13.1269 23.0842 12.816 22.785 12.816 22.4178V18.2787H11.7345C11.3605 18.2787 11.0586 17.9749 11.0586 17.5986C11.0586 17.2223 11.365 16.9186 11.7345 16.9186H15.2809C15.6549 16.9186 15.9568 17.2223 15.9568 17.5986C15.9568 17.9749 15.6504 18.2787 15.2809 18.2787H14.1994V22.4178C14.1994 22.7805 13.884 23.0842 13.5055 23.0842H13.51ZM19.5798 23.0751C19.2914 23.0751 19.0706 22.9573 19.003 22.7668L18.6605 21.8601H16.5516L16.2092 22.7668C16.1416 22.9573 15.9208 23.0751 15.6324 23.0751C15.4792 23.0751 15.3305 23.0434 15.1908 22.9845C15.0015 22.8938 14.8168 22.6535 15.0286 21.9961L16.6823 17.6122C16.7995 17.2767 17.1555 16.9322 17.6061 16.9231C18.0567 16.9141 18.4172 17.2767 18.5299 17.6122L20.1836 21.9961C20.3954 22.6535 20.2107 22.9029 20.0214 22.9845C19.8862 23.0479 19.733 23.0751 19.5798 23.0751ZM18.2955 20.627L17.6061 18.6504L16.9166 20.627H18.2955ZM21.2967 22.9845C20.9362 22.9845 20.6343 22.6988 20.6343 22.3498V17.6122C20.6343 17.2269 20.9497 16.9141 21.3417 16.9141C21.7338 16.9141 22.0492 17.2314 22.0492 17.6122V21.7015H23.5182C23.8787 21.7015 24.1806 21.9871 24.1806 22.3362C24.1806 22.6852 23.8832 22.9709 23.5182 22.9709L21.2967 22.9845ZM24.4465 22.377V17.6168C24.4465 17.2314 24.7619 16.9186 25.1405 16.9186C25.519 16.9186 25.8344 17.2359 25.8344 17.6168V19.1128L27.7721 17.1634C27.9854 16.9488 28.3886 16.9676 28.6328 17.2133C28.8621 17.444 28.9217 17.8341 28.6823 18.0792L27.0961 19.6659L28.7995 21.9327C29.0284 22.2274 28.9728 22.6865 28.6643 22.9029C28.3601 23.1295 27.9133 23.054 27.6955 22.7668L26.0732 20.6044L25.8344 20.8446V22.3634C25.8344 23.268 24.4465 23.3028 24.4465 22.377Z" fill="#2FC6DD"/>
</svg>
