<svg width="171" height="99" viewBox="0 0 171 99" fill="none" xmlns="http://www.w3.org/2000/svg">
<g style="mix-blend-mode:luminosity" opacity="0.5">
<path fill-rule="evenodd" clip-rule="evenodd" d="M85.5177 39.843C85.5659 40.1279 85.6801 40.3969 85.827 40.6457C86.2413 41.3476 86.4963 42.1576 86.5396 43.0281L87.5005 62.328C87.6433 65.1978 85.4328 67.64 82.563 67.7829C81.5685 67.8324 80.6254 67.5992 79.8115 67.154C78.7723 66.5855 77.3515 66.4832 76.4998 67.3064C69.3082 74.2568 58.8942 77.6093 48.3825 75.3462C31.6292 71.7394 20.9719 55.2342 24.5787 38.4809C28.1856 21.7276 44.6907 11.0703 61.444 14.6772C74.2274 17.4293 83.4616 27.6913 85.5177 39.843Z" fill="#FFE5B6"/>
<mask id="mask0_2418_58051" style="mask-type:alpha" maskUnits="userSpaceOnUse" x="23" y="13" width="65" height="64">
<path fill-rule="evenodd" clip-rule="evenodd" d="M85.5167 39.8432C85.5649 40.1281 85.6792 40.3971 85.826 40.6459C86.2403 41.3479 86.4953 42.1578 86.5386 43.0284L87.4995 62.3283C87.6424 65.198 85.4318 67.6402 82.5621 67.7831C81.5676 67.8326 80.6244 67.5995 79.8105 67.1542C78.7713 66.5857 77.3506 66.4835 76.4988 67.3066C69.3073 74.257 58.8932 77.6095 48.3815 75.3464C31.6282 71.7396 20.9709 55.2345 24.5778 38.4812C28.1846 21.7279 44.6897 11.0706 61.443 14.6774C74.2264 17.4296 83.4606 27.6915 85.5167 39.8432Z" fill="#FFE5B6"/>
</mask>
<g mask="url(#mask0_2418_58051)">
<circle cx="35.3025" cy="64.736" r="10.2193" transform="rotate(12.1498 35.3025 64.736)" fill="#FECC6E"/>
<circle cx="73.7712" cy="60.8537" r="10.2193" transform="rotate(12.1498 73.7712 60.8537)" fill="#FECC6E"/>
</g>
<path d="M84.1356 34.8144C82.865 30.9427 80.8443 27.3591 78.1888 24.2683C75.5334 21.1775 72.2951 18.6401 68.659 16.8008C65.0229 14.9615 61.06 13.8564 56.9968 13.5486C52.9336 13.2408 48.8496 13.7363 44.9778 15.0068C41.1061 16.2774 37.5226 18.2981 34.4318 20.9536C31.341 23.609 28.8035 26.8473 26.9642 30.4834C25.1249 34.1195 24.0198 38.0823 23.712 42.1456C23.4042 46.2088 23.8998 50.2928 25.1703 54.1646C30.861 51.5673 35.8232 48.9018 38.9118 41.3888C52.973 47.3039 70.0519 44.7792 84.1356 34.8144Z" fill="#FEBF4A"/>
<path d="M3.20812 56.7329C2.24751 56.372 1.1762 56.8581 0.815301 57.8188C0.4544 58.7794 0.940567 59.8507 1.90119 60.2116L3.20812 56.7329ZM23.929 49.9258C21.9315 53.1567 18.5386 55.5403 14.6774 56.7707C10.8131 58.0021 6.64563 58.0243 3.20812 56.7329L1.90119 60.2116C6.23669 61.8404 11.2727 61.7558 15.8056 60.3114C20.3415 58.866 24.5396 56.0048 27.0898 51.8801L23.929 49.9258Z" fill="#FEBF4A"/>
<path d="M25.6253 53.9402L17.1225 64.3893C16.9646 64.5833 16.6641 64.5691 16.5252 64.3611L14.2867 61.0088C14.1481 60.8013 14.2497 60.5188 14.4884 60.4462C19.1598 59.0239 21.8569 57.9932 25.6253 53.9402Z" fill="#FEBF4A"/>
<circle cx="8.54706" cy="8.54706" r="8.54706" transform="matrix(-0.977601 -0.210469 -0.210469 0.977601 56.0654 50.3896)" fill="white"/>
<circle cx="6.31739" cy="6.31739" r="6.31739" transform="matrix(-0.977601 -0.210469 -0.210469 0.977601 54.8691 52.4133)" fill="black"/>
<path d="M51.1527 47.5486C51.278 47.2674 51.1516 46.9379 50.8704 46.8126C50.5892 46.6873 50.2597 46.8137 50.1344 47.0949L51.1527 47.5486ZM50.1344 47.0949L49.2269 49.1316L50.2453 49.5853L51.1527 47.5486L50.1344 47.0949Z" fill="black"/>
<circle cx="8.54706" cy="8.54706" r="8.54706" transform="matrix(-0.977601 -0.210469 -0.210469 0.977601 76.0029 47.8396)" fill="white"/>
<circle cx="6.31739" cy="6.31739" r="6.31739" transform="matrix(-0.977601 -0.210469 -0.210469 0.977601 72.1074 50.0417)" fill="black"/>
<path d="M71.0902 44.9986C71.2155 44.7174 71.0891 44.3879 70.8079 44.2626C70.5267 44.1373 70.1972 44.2637 70.0719 44.5449L71.0902 44.9986ZM70.0719 44.5449L69.1644 46.5815L70.1828 47.0352L71.0902 44.9986L70.0719 44.5449Z" fill="black"/>
<path d="M55.4663 12.696L44.5223 13.3471C44.3151 13.3594 44.1371 13.2014 44.1248 12.9942L43.9137 9.44689L43.7222 6.22775C43.7013 5.8759 44.1326 5.69135 44.3726 5.94945L46.6707 8.42037C46.7517 8.50744 46.8922 8.49836 46.9613 8.40158L49.2369 5.21414C49.376 5.01929 49.6594 5.00243 49.8207 5.17941L52.4581 8.07454C52.5382 8.16245 52.6788 8.15482 52.7489 8.05875L54.7378 5.33278C54.9456 5.04804 55.3957 5.18014 55.4166 5.53199L55.6082 8.75114L55.8192 12.2984C55.8315 12.5057 55.6735 12.6836 55.4663 12.696Z" fill="#FEBF4A"/>
<path fill-rule="evenodd" clip-rule="evenodd" d="M64.667 80.6859C66.8286 79.9043 68.4555 77.8682 68.6526 75.3663C68.9184 71.9904 66.4801 69.0447 63.2065 68.7869C61.2226 68.6307 59.3872 69.4974 58.1898 70.9561C57.2354 69.328 55.5583 68.1846 53.5744 68.0284C51.5905 67.8722 49.7551 68.7389 48.5577 70.1976C47.6033 68.5695 45.9262 67.4261 43.9423 67.2699C40.6687 67.0121 37.7994 69.5398 37.5335 72.9158C37.3439 75.3242 38.5305 77.5136 40.4148 78.6644C39.7883 79.0842 39.1836 79.542 38.6043 80.0367C34.9575 83.1511 32.5958 86.5323 31.9463 91.1173C31.86 91.7269 32.3223 92.2652 32.9361 92.3136L51.2741 93.7576L69.6121 95.2017C70.2259 95.25 70.7666 94.7908 70.7796 94.1752C70.8778 89.5468 69.2243 85.8495 66.1099 82.2027C65.6543 81.6691 65.1724 81.1631 64.667 80.6859Z" fill="url(#paint0_linear_2418_58051)"/>
<path fill-rule="evenodd" clip-rule="evenodd" d="M117.596 67.6658L106.986 67.6658L106.986 91.8086L104.953 92.2903C104.525 92.3918 104.218 92.8241 104.218 93.3254L104.218 94.0502L106.986 94.0502L117.596 94.0502L117.596 89.2936L117.596 67.6658Z" fill="url(#paint1_linear_2418_58051)"/>
<path fill-rule="evenodd" clip-rule="evenodd" d="M117.295 70.4643L126.674 65.5047L137.96 86.8476L139.981 86.3235C140.407 86.213 140.881 86.4516 141.115 86.8947L141.454 87.5354L139.007 88.8292L129.628 93.7888L127.404 89.5839L117.295 70.4643Z" fill="url(#paint2_linear_2418_58051)"/>
<path fill-rule="evenodd" clip-rule="evenodd" d="M85.5989 60.6489C85.5936 60.5424 85.5654 60.4385 85.5168 60.3436C85.336 59.9902 85.1614 59.6322 84.9932 59.2697C84.9107 59.0919 85.0353 58.8883 85.2312 58.8786C85.3849 58.8709 85.5033 58.7401 85.4956 58.5864L84.3132 34.8372C84.3079 34.7304 84.3256 34.6237 84.3658 34.5246C87.6991 26.3064 94.5136 19.568 103.615 16.6369C119.928 11.3839 137.41 20.3491 142.663 36.6613C147.916 52.9735 138.951 70.4555 122.638 75.7086C111.854 79.1815 100.558 76.4398 92.6228 69.4689C92.4341 69.3032 92.1762 69.2437 91.9291 69.2891C91.7051 69.3302 91.4757 69.3571 91.242 69.3687C88.3723 69.5116 85.9301 67.301 85.7872 64.4313L85.5989 60.6489Z" fill="#ACE8F1"/>
<mask id="mask1_2418_58051" style="mask-type:alpha" maskUnits="userSpaceOnUse" x="84" y="15" width="61" height="63">
<path fill-rule="evenodd" clip-rule="evenodd" d="M85.5981 60.6457C85.5928 60.5393 85.5646 60.4354 85.516 60.3405C85.3355 59.9876 85.1611 59.6301 84.9932 59.2682C84.9107 59.0904 85.0353 58.8869 85.2311 58.8771C85.3848 58.8695 85.5032 58.7387 85.4955 58.585L84.8257 45.1307C84.825 45.1177 84.8244 45.1048 84.8239 45.0918L84.3133 34.8357C84.3079 34.729 84.3256 34.6222 84.3658 34.5231C87.6992 26.305 94.5136 19.5665 103.615 16.6355C119.928 11.3824 137.41 20.3476 142.663 36.6598C147.916 52.972 138.951 70.4541 122.638 75.7071C111.854 79.18 100.559 76.4384 92.6234 69.4679C92.4346 69.3021 92.1766 69.2427 91.9295 69.2881C91.7051 69.3294 91.4754 69.3563 91.2413 69.368C88.3716 69.5109 85.9294 67.3003 85.7865 64.4306L85.5981 60.6457Z" fill="#ACE8F1"/>
</mask>
<g mask="url(#mask1_2418_58051)">
<circle cx="10.2193" cy="10.2193" r="10.2193" transform="matrix(-0.951861 0.306529 0.306529 0.951861 141.51 50.3069)" fill="#58D1E4"/>
<circle cx="10.2193" cy="10.2193" r="10.2193" transform="matrix(-0.951861 0.306529 0.306529 0.951861 102.865 50.6365)" fill="#58D1E4"/>
</g>
<path d="M92.2112 22.8955C89.2581 25.7032 86.8868 29.0651 85.2329 32.7892C84.9 33.5389 84.5974 34.3003 84.3256 35.0715L84.8346 45.2937C96.8475 48.2757 121.071 44.9067 129.572 37.1653C130.781 42.7583 139.335 46.4295 144.611 46.1669C144.714 42.0933 144.014 38.0394 142.55 34.2365C141.086 30.4337 138.887 26.9564 136.08 24.0032C133.272 21.0501 129.91 18.6788 126.186 17.0249C122.462 15.371 118.448 14.4668 114.375 14.3639C110.301 14.2611 106.247 14.9615 102.445 16.4254C98.6417 17.8892 95.1644 20.0878 92.2112 22.8955Z" fill="#2FC6DD"/>
<path d="M168.374 43.049C169.399 43.0764 170.209 43.9302 170.181 44.956C170.154 45.9818 169.3 46.7912 168.274 46.7638L168.374 43.049ZM144.212 42.4043L168.374 43.049L168.274 46.7638L144.113 46.1191L144.212 42.4043Z" fill="#2FC6DD"/>
<path d="M144.369 42.7788L157.298 38.9083C157.531 38.8387 157.766 39.007 157.776 39.2495L157.914 42.7248C157.922 42.9393 157.748 43.1164 157.533 43.111L144.369 42.7788Z" fill="#2FC6DD"/>
<circle cx="123.762" cy="56.4603" r="8.54706" transform="rotate(-17.8502 123.762 56.4603)" fill="white"/>
<circle cx="122.347" cy="56.9164" r="6.31739" transform="rotate(-17.8502 122.347 56.9164)" fill="black"/>
<circle cx="103.671" cy="55.9039" r="8.54706" transform="rotate(-17.8502 103.671 55.9039)" fill="white"/>
<circle cx="104.96" cy="56.2702" r="6.31739" transform="rotate(-17.8502 104.96 56.2702)" fill="black"/>
<path fill-rule="evenodd" clip-rule="evenodd" d="M117.444 74.6389C117.624 74.6702 117.81 74.6335 117.966 74.536L124.055 70.7112C124.496 70.4339 125.078 70.6853 125.179 71.1967L126.271 76.7321C126.372 77.2435 125.929 77.6971 125.415 77.6083L118.33 76.3826C118.149 76.3513 117.963 76.388 117.808 76.4856L111.719 80.3104C111.277 80.5876 110.695 80.3362 110.594 79.8248L109.502 74.2894C109.401 73.7781 109.844 73.3244 110.358 73.4132L117.444 74.6389Z" fill="#403B3B"/>
</g>
<defs>
<linearGradient id="paint0_linear_2418_58051" x1="53.3892" y1="68.0138" x2="51.2741" y2="94.8725" gradientUnits="userSpaceOnUse">
<stop stop-color="#FEBF4A"/>
<stop offset="1" stop-color="#FEBF4A" stop-opacity="0.3"/>
</linearGradient>
<linearGradient id="paint1_linear_2418_58051" x1="110.907" y1="67.6658" x2="110.907" y2="88.8063" gradientUnits="userSpaceOnUse">
<stop stop-color="#403B3B" stop-opacity="0.3"/>
<stop offset="1" stop-color="#403B3B"/>
</linearGradient>
<linearGradient id="paint2_linear_2418_58051" x1="123.208" y1="67.3376" x2="133.09" y2="86.0264" gradientUnits="userSpaceOnUse">
<stop stop-color="#403B3B" stop-opacity="0.3"/>
<stop offset="1" stop-color="#403B3B"/>
</linearGradient>
</defs>
</svg>
