<svg width="140" height="118" viewBox="0 0 140 118" fill="none" xmlns="http://www.w3.org/2000/svg">
<g opacity="0.4">
<mask id="mask0_3225_26061" style="mask-type:alpha" maskUnits="userSpaceOnUse" x="30" y="12" width="81" height="80">
<circle cx="70.7782" cy="52.0795" r="39.9002" transform="rotate(15 70.7782 52.0795)" fill="#FFE5B6"/>
</mask>
<g mask="url(#mask0_3225_26061)">
<circle cx="71.0126" cy="52.3044" r="39.9002" transform="rotate(15 71.0126 52.3044)" fill="#FFE5B6"/>
<circle cx="44.5244" cy="76.2108" r="13.1408" transform="rotate(15 44.5244 76.2108)" fill="#FEBF4A"/>
<circle cx="94.1767" cy="73.6845" r="13.1408" transform="rotate(15 94.1767 73.6845)" fill="#FEBF4A"/>
</g>
<path d="M109.152 40.9048C107.768 35.8512 105.402 31.1197 102.189 26.9805C98.976 22.8412 94.9794 19.3753 90.4272 16.7806C85.8749 14.1859 80.8562 12.5133 75.6576 11.8582C70.4589 11.2031 65.1821 11.5783 60.1285 12.9625C55.0748 14.3467 50.3433 16.7128 46.2041 19.9255C42.0648 23.1383 38.5989 27.1349 36.0043 31.6871C33.4096 36.2394 31.7369 41.2581 31.0818 46.4567C30.4267 51.6554 30.802 56.9322 32.1862 61.9858C39.6606 59.0141 46.2041 55.9081 50.6511 46.4567C68.3315 54.9524 90.4272 52.8021 109.152 40.9048Z" fill="#FEBF4A"/>
<path d="M3.81757 63.8812C2.60693 63.3563 1.19999 63.9121 0.675065 65.1228C0.150139 66.3334 0.706019 67.7404 1.91666 68.2653L3.81757 63.8812ZM32.8316 57.8198L30.8644 56.4639C28.0924 60.4856 23.5826 63.3298 18.545 64.6631C13.5034 65.9975 8.14975 65.7596 3.81757 63.8812L2.86711 66.0732L1.91666 68.2653C7.38055 70.6344 13.8537 70.8478 19.7676 69.2825C25.6854 67.7163 31.2598 64.3101 34.7988 59.1758L32.8316 57.8198Z" fill="#FEBF4A"/>
<path d="M32.7868 61.727L21.1986 74.6031C20.9834 74.8421 20.5983 74.8047 20.4333 74.5287L17.7728 70.0802C17.6081 69.8049 17.7566 69.4486 18.0678 69.3705C24.1582 67.8426 27.6879 66.6914 32.7868 61.727Z" fill="#FEBF4A"/>
<circle cx="10.9905" cy="10.9905" r="10.9905" transform="matrix(-0.965926 -0.258819 -0.258819 0.965926 72.1094 59.1147)" fill="#FDFDFD"/>
<circle cx="8.1234" cy="8.1234" r="8.1234" transform="matrix(-0.965926 -0.258819 -0.258819 0.965926 70.4434 61.6365)" fill="#232323"/>
<path d="M65.9812 55.152C66.1601 54.7989 66.0188 54.3676 65.6657 54.1887C65.3126 54.0098 64.8813 54.1511 64.7024 54.5042L65.9812 55.152ZM65.3418 54.8281L64.7024 54.5042L63.4067 57.0618L64.0461 57.3857L64.6855 57.7097L65.9812 55.152L65.3418 54.8281Z" fill="#232323"/>
<circle cx="10.9905" cy="10.9905" r="10.9905" transform="matrix(-0.965926 -0.258819 -0.258819 0.965926 97.875 57.1147)" fill="#FDFDFD"/>
<circle cx="8.1234" cy="8.1234" r="8.1234" transform="matrix(-0.965926 -0.258819 -0.258819 0.965926 92.7305 59.6934)" fill="#232323"/>
<path d="M91.7468 53.152C91.9257 52.7989 91.7845 52.3676 91.4313 52.1887C91.0782 52.0098 90.6469 52.1511 90.468 52.5042L91.7468 53.152ZM91.1074 52.8281L90.468 52.5042L89.1723 55.0618L89.8118 55.3857L90.4512 55.7097L91.7468 53.152L91.1074 52.8281Z" fill="#232323"/>
<path d="M74.5875 10.6966L60.4906 10.833C60.2237 10.8356 60.0052 10.6213 60.0027 10.3544L59.9584 5.78517L59.9183 1.63861C59.9139 1.18539 60.4796 0.975965 60.7714 1.32279L63.5648 4.6431C63.6633 4.7601 63.8443 4.75742 63.9392 4.63754L67.0656 0.689461C67.2567 0.448107 67.6217 0.444573 67.8175 0.682182L71.0197 4.569C71.1169 4.68702 71.2979 4.6862 71.3941 4.56731L74.1227 1.19355C74.4077 0.841141 74.9774 1.03958 74.9818 1.4928L75.0219 5.63936L75.0661 10.2086C75.0687 10.4755 74.8544 10.694 74.5875 10.6966Z" fill="#FEBF4A"/>
<path fill-rule="evenodd" clip-rule="evenodd" d="M88.6085 98.7293C91.3006 97.5091 93.1806 94.7349 93.1806 91.5078C93.1806 87.1533 89.7576 83.6233 85.5351 83.6233C82.9761 83.6233 80.7108 84.9197 79.3231 86.9104C77.9353 84.9197 75.67 83.6233 73.1111 83.6233C70.5521 83.6233 68.2868 84.9197 66.899 86.9104C65.5113 84.9197 63.246 83.6233 60.687 83.6233C56.4645 83.6233 53.0415 87.1533 53.0415 91.5078C53.0415 94.6143 54.7836 97.3012 57.3153 98.5861C56.5545 99.1875 55.8256 99.8354 55.133 100.528C50.7725 104.889 48.183 109.457 47.8274 115.4C47.7801 116.19 48.427 116.834 49.2187 116.834H72.8721H96.5256C97.3173 116.834 97.9642 116.19 97.9169 115.4C97.5613 109.457 94.9718 104.889 90.6113 100.528C89.9733 99.8901 89.3046 99.29 88.6085 98.7293Z" fill="url(#paint0_linear_3225_26061)"/>
<path d="M113.222 64.5088C113.232 64.4707 113.247 64.4341 113.266 64.3997L119.675 52.9124C120.159 52.0455 121.48 52.3994 121.465 53.3921L121.272 66.5448C121.271 66.5842 121.266 66.6234 121.256 66.6615L111.329 103.708C111.192 104.218 110.668 104.52 110.159 104.384L103.971 102.726C103.461 102.589 103.159 102.065 103.295 101.555L113.222 64.5088Z" fill="#6A6868"/>
<path d="M102.175 104.936C102.311 104.426 102.835 104.124 103.345 104.26L106.439 105.089L109.533 105.918C110.042 106.055 110.345 106.579 110.208 107.089L109.737 108.847C109.464 109.866 108.416 110.471 107.396 110.198L103.055 109.035C102.035 108.762 101.43 107.714 101.704 106.694L102.175 104.936Z" fill="#6A6868"/>
<rect x="96.1367" y="99.4895" width="17.7334" height="15.763" rx="7.88151" transform="rotate(-95.2868 96.1367 99.4895)" fill="#FECC6E"/>
</g>
<defs>
<linearGradient id="paint0_linear_3225_26061" x1="72.8721" y1="83.6233" x2="72.8721" y2="118.267" gradientUnits="userSpaceOnUse">
<stop stop-color="#FEBF4A"/>
<stop offset="1" stop-color="#FEBF4A" stop-opacity="0.3"/>
</linearGradient>
</defs>
</svg>
