<svg width="172" height="78" viewBox="0 0 172 78" fill="none" xmlns="http://www.w3.org/2000/svg">
<g style="mix-blend-mode:luminosity" opacity="0.5">
<path fill-rule="evenodd" clip-rule="evenodd" d="M85.6228 39.8937C85.671 40.1789 85.7855 40.4482 85.9325 40.6973C86.3473 41.4002 86.6026 42.2111 86.646 43.0828L87.608 62.4067C87.7511 65.28 85.5378 67.7252 82.6645 67.8683C81.6687 67.9178 80.7244 67.6844 79.9095 67.2386C78.869 66.6694 77.4465 66.567 76.5937 67.3912C69.3932 74.3502 58.9662 77.7069 48.4414 75.441C31.6673 71.8297 20.9968 55.304 24.6081 38.5299C28.2194 21.7558 44.7451 11.0852 61.5192 14.6966C74.3185 17.4521 83.5642 27.7268 85.6228 39.8937Z" fill="#FFE5B6"/>
<mask id="mask0_2579_31922" style="mask-type:alpha" maskUnits="userSpaceOnUse" x="23" y="13" width="65" height="64">
<path fill-rule="evenodd" clip-rule="evenodd" d="M85.6228 39.8938C85.671 40.179 85.7855 40.4483 85.9325 40.6975C86.3473 41.4003 86.6026 42.2112 86.646 43.0829L87.608 62.4068C87.7511 65.2801 85.5378 67.7253 82.6645 67.8684C81.6687 67.9179 80.7244 67.6845 79.9095 67.2387C78.869 66.6695 77.4465 66.5671 76.5937 67.3913C69.3932 74.3504 58.9662 77.707 48.4414 75.4411C31.6673 71.8298 20.9968 55.3041 24.6081 38.53C28.2194 21.7559 44.7451 11.0854 61.5192 14.6967C74.3185 17.4523 83.5642 27.727 85.6228 39.8938Z" fill="#FFE5B6"/>
</mask>
<g mask="url(#mask0_2579_31922)">
<circle cx="35.3474" cy="64.8175" r="10.232" transform="rotate(12.1498 35.3474 64.8175)" fill="#FECC6E"/>
<circle cx="73.863" cy="60.9303" r="10.232" transform="rotate(12.1498 73.863 60.9303)" fill="#FECC6E"/>
</g>
<path d="M84.2391 34.8588C82.9669 30.9823 80.9437 27.3943 78.2849 24.2997C75.6262 21.2051 72.3839 18.6644 68.7432 16.8228C65.1026 14.9813 61.1349 13.8748 57.0666 13.5666C52.9983 13.2584 48.9092 13.7545 45.0327 15.0267C41.1561 16.2988 37.5681 18.322 34.4735 20.9808C31.3789 23.6396 28.8383 26.8818 26.9967 30.5225C25.1551 34.1631 24.0486 38.1309 23.7404 42.1991C23.4322 46.2674 23.9284 50.3565 25.2005 54.2331C30.8982 51.6326 35.8667 48.9638 38.9591 41.4415C53.0377 47.3638 70.1379 44.8361 84.2391 34.8588Z" fill="#FEBF4A"/>
<path d="M3.21301 56.8046C2.2512 56.4432 1.17856 56.93 0.817211 57.8918C0.455862 58.8536 0.942633 59.9262 1.90445 60.2876L3.21301 56.8046ZM23.9597 49.9891C21.9596 53.224 18.5626 55.6105 14.6965 56.8424C10.8274 58.0754 6.65479 58.0976 3.21301 56.8046L1.90445 60.2876C6.24534 61.9185 11.2876 61.8338 15.8262 60.3875C20.3677 58.9404 24.571 56.0756 27.1244 51.9457L23.9597 49.9891Z" fill="#FEBF4A"/>
<path d="M25.6568 54.0085L17.1434 64.4706C16.9853 64.6648 16.6844 64.6506 16.5454 64.4424L14.3041 61.0859C14.1654 60.8781 14.267 60.5953 14.5061 60.5226C19.1833 59.0985 21.8837 58.0666 25.6568 54.0085Z" fill="#FEBF4A"/>
<circle cx="8.55769" cy="8.55769" r="8.55769" transform="matrix(-0.977601 -0.210469 -0.210469 0.977601 56.1367 50.4534)" fill="white"/>
<circle cx="6.32525" cy="6.32525" r="6.32525" transform="matrix(-0.977601 -0.210469 -0.210469 0.977601 54.9395 52.4795)" fill="black"/>
<path d="M51.2188 47.6087C51.3442 47.3272 51.2177 46.9972 50.9361 46.8718C50.6546 46.7463 50.3246 46.8729 50.1992 47.1544L51.2188 47.6087ZM50.1992 47.1544L49.2906 49.1936L50.3102 49.6479L51.2188 47.6087L50.1992 47.1544Z" fill="black"/>
<circle cx="8.55769" cy="8.55769" r="8.55769" transform="matrix(-0.977601 -0.210469 -0.210469 0.977601 76.0977 47.9009)" fill="white"/>
<circle cx="6.32525" cy="6.32525" r="6.32525" transform="matrix(-0.977601 -0.210469 -0.210469 0.977601 72.1973 50.1057)" fill="black"/>
<path d="M71.1797 45.0562C71.3052 44.7747 71.1786 44.4448 70.8971 44.3193C70.6155 44.1939 70.2856 44.3204 70.1601 44.602L71.1797 45.0562ZM70.1601 44.602L69.2515 46.6411L70.2711 47.0954L71.1797 45.0562L70.1601 44.602Z" fill="black"/>
<path d="M56.4303 12.7129L45.4727 13.3648C45.2652 13.3771 45.087 13.219 45.0747 13.0115L44.8634 9.45977L44.6716 6.23663C44.6507 5.88434 45.0825 5.69956 45.3229 5.95798L47.6238 8.43197C47.7049 8.51916 47.8456 8.51006 47.9147 8.41316L50.1932 5.22176C50.3325 5.02666 50.6162 5.00978 50.7776 5.18699L53.4184 8.08572C53.4986 8.17373 53.6393 8.16609 53.7095 8.0699L55.7009 5.34054C55.9089 5.05545 56.3596 5.18771 56.3806 5.54L56.5723 8.76315L56.7836 12.3149C56.796 12.5223 56.6378 12.7005 56.4303 12.7129Z" fill="#FEBF4A"/>
<path fill-rule="evenodd" clip-rule="evenodd" d="M64.7473 80.7876C66.9116 80.0049 68.5406 77.9664 68.7378 75.4614C69.004 72.0812 66.5627 69.1319 63.285 68.8737C61.2986 68.7173 59.4609 69.5852 58.262 71.0456C57.3064 69.4155 55.6273 68.2707 53.6409 68.1143C51.6546 67.9579 49.8169 68.8257 48.618 70.2862C47.6624 68.6561 45.9832 67.5113 43.9969 67.3549C40.7192 67.0967 37.8463 69.6276 37.5801 73.0078C37.3902 75.4192 38.5783 77.6113 40.465 78.7635C39.8376 79.1838 39.2322 79.6422 38.6522 80.1375C35.0009 83.2558 32.6362 86.6412 31.9859 91.2319C31.8995 91.8423 32.3624 92.3813 32.977 92.4297L51.3378 93.8755L69.6986 95.3214C70.3131 95.3698 70.8545 94.9099 70.8675 94.2936C70.9658 89.6595 69.3102 85.9575 66.192 82.3062C65.7358 81.772 65.2533 81.2653 64.7473 80.7876Z" fill="url(#paint0_linear_2579_31922)"/>
<path fill-rule="evenodd" clip-rule="evenodd" d="M117.742 67.7482L107.119 67.7482L107.119 91.921L105.084 92.4033C104.655 92.5049 104.348 92.9378 104.348 93.4397L104.348 94.1654L107.119 94.1654L117.742 94.1654L117.742 89.4028L117.742 67.7482Z" fill="url(#paint1_linear_2579_31922)"/>
<path fill-rule="evenodd" clip-rule="evenodd" d="M117.44 70.5502L126.831 65.5845L138.131 86.9538L140.155 86.4291C140.582 86.3185 141.056 86.5573 141.29 87.001L141.63 87.6425L139.18 88.938L129.788 93.9037L127.562 89.6935L117.44 70.5502Z" fill="url(#paint2_linear_2579_31922)"/>
<path fill-rule="evenodd" clip-rule="evenodd" d="M84.9306 45.1343C84.9313 45.1515 84.9321 45.1686 84.9329 45.1858L85.895 64.5096C86.0381 67.383 88.4833 69.5963 91.3566 69.4532C92.0774 69.4173 92.7567 69.2366 93.3677 68.9405C93.6607 68.7985 94.0143 68.8219 94.2646 69.0302C102.171 75.6097 113.171 78.1244 123.687 74.7382C140.019 69.4786 148.995 51.9748 143.736 35.6423C138.476 19.3099 120.973 10.3335 104.64 15.5931C94.6661 18.805 87.4354 26.5833 84.515 35.8725C84.4889 35.9555 84.478 36.0427 84.4823 36.1296L84.9306 45.1343Z" fill="#ACE8F1"/>
<mask id="mask1_2579_31922" style="mask-type:alpha" maskUnits="userSpaceOnUse" x="84" y="14" width="62" height="63">
<path fill-rule="evenodd" clip-rule="evenodd" d="M84.9287 45.1359C84.9294 45.153 84.9301 45.1702 84.931 45.1874L85.8931 64.5112C86.0361 67.3845 88.4813 69.5979 91.3547 69.4548C92.0755 69.4189 92.7548 69.2381 93.3658 68.9421C93.6588 68.8 94.0124 68.8235 94.2627 69.0318C102.169 75.6113 113.169 78.126 123.685 74.7398C140.017 69.4802 148.993 51.9764 143.734 35.6439C138.474 19.3115 120.971 10.3351 104.638 15.5947C94.6641 18.8066 87.4335 26.5848 84.5131 35.874C84.4869 35.9571 84.476 36.0442 84.4804 36.1312L84.9287 45.1359Z" fill="#ACE8F1"/>
</mask>
<g mask="url(#mask1_2579_31922)">
<circle cx="10.232" cy="10.232" r="10.232" transform="matrix(-0.951861 0.306529 0.306529 0.951861 141.686 50.3696)" fill="#58D1E4"/>
<circle cx="10.232" cy="10.232" r="10.232" transform="matrix(-0.951861 0.306529 0.306529 0.951861 102.992 50.6996)" fill="#58D1E4"/>
</g>
<path d="M92.3262 22.9236C89.3693 25.7348 86.9952 29.1009 85.3392 32.8296C85.0058 33.5802 84.7029 34.3426 84.4308 35.1148L84.9404 45.3496C96.9682 48.3354 121.222 44.9622 129.734 37.2112C130.944 42.8111 139.509 46.4869 144.791 46.2239C144.894 42.1453 144.193 38.0864 142.727 34.2788C141.262 30.4712 139.06 26.9896 136.249 24.0328C133.438 21.0759 130.072 18.7017 126.343 17.0458C122.614 15.3898 118.596 14.4844 114.517 14.3815C110.439 14.2785 106.38 14.9798 102.572 16.4455C98.7646 17.9112 95.283 20.1124 92.3262 22.9236Z" fill="#2FC6DD"/>
<path d="M168.583 43.1038C169.61 43.1312 170.421 43.986 170.393 45.0131C170.366 46.0402 169.511 46.8506 168.484 46.8232L168.583 43.1038ZM144.391 42.4583L168.583 43.1038L168.484 46.8232L144.292 46.1777L144.391 42.4583Z" fill="#2FC6DD"/>
<path d="M144.55 42.8333L157.495 38.9579C157.727 38.8882 157.963 39.0567 157.973 39.2996L158.111 42.7792C158.12 42.994 157.945 43.1713 157.73 43.1659L144.55 42.8333Z" fill="#2FC6DD"/>
<circle cx="123.917" cy="56.5321" r="8.55769" transform="rotate(-17.8502 123.917 56.5321)" fill="white"/>
<circle cx="122.499" cy="56.9887" r="6.32525" transform="rotate(-17.8502 122.499 56.9887)" fill="black"/>
<circle cx="103.8" cy="55.9725" r="8.55769" transform="rotate(-17.8502 103.8 55.9725)" fill="white"/>
<circle cx="105.089" cy="56.3391" r="6.32525" transform="rotate(-17.8502 105.089 56.3391)" fill="black"/>
<path fill-rule="evenodd" clip-rule="evenodd" d="M117.59 74.7316C117.771 74.7629 117.958 74.7262 118.113 74.6285L124.21 70.799C124.652 70.5214 125.235 70.7731 125.336 71.2851L126.429 76.8274C126.53 77.3394 126.086 77.7936 125.572 77.7047L118.478 76.4774C118.297 76.4461 118.111 76.4829 117.955 76.5806L111.858 80.4101C111.416 80.6877 110.834 80.436 110.733 79.924L109.639 74.3817C109.538 73.8697 109.982 73.4155 110.496 73.5044L117.59 74.7316Z" fill="#403B3B"/>
</g>
<defs>
<linearGradient id="paint0_linear_2579_31922" x1="53.4554" y1="68.0997" x2="51.3378" y2="94.9918" gradientUnits="userSpaceOnUse">
<stop stop-color="#FEBF4A"/>
<stop offset="1" stop-color="#FEBF4A" stop-opacity="0.3"/>
</linearGradient>
<linearGradient id="paint1_linear_2579_31922" x1="111.045" y1="67.7482" x2="111.045" y2="88.915" gradientUnits="userSpaceOnUse">
<stop stop-color="#403B3B" stop-opacity="0.3"/>
<stop offset="1" stop-color="#403B3B"/>
</linearGradient>
<linearGradient id="paint2_linear_2579_31922" x1="123.361" y1="67.4197" x2="133.255" y2="86.1317" gradientUnits="userSpaceOnUse">
<stop stop-color="#403B3B" stop-opacity="0.3"/>
<stop offset="1" stop-color="#403B3B"/>
</linearGradient>
</defs>
</svg>
