<svg width="40" height="40" viewBox="0 0 40 40" fill="none" xmlns="http://www.w3.org/2000/svg">
<path d="M32.4383 21.25C31.9751 25.915 28.9473 29.8255 24.7847 31.5516C26.2932 29.0494 27.3036 25.3878 27.4743 21.25H32.4383Z" fill="#2FC6DD"/>
<path d="M32.4383 18.75C31.9751 14.085 28.9473 10.1745 24.7847 8.44845C26.2932 10.9506 27.3036 14.6122 27.4743 18.75H32.4383Z" fill="#2FC6DD"/>
<path d="M24.972 18.75C24.823 15.4362 24.0902 12.5573 23.0672 10.5114C21.8429 8.06273 20.614 7.5 20 7.5C19.386 7.5 18.1571 8.06273 16.9328 10.5114C15.9098 12.5573 15.177 15.4362 15.028 18.75H24.972Z" fill="#2FC6DD"/>
<path d="M15.028 21.25C15.177 24.5638 15.9098 27.4427 16.9328 29.4886C18.1571 31.9373 19.386 32.5 20 32.5C20.614 32.5 21.8429 31.9373 23.0672 29.4886C24.0902 27.4427 24.823 24.5638 24.972 21.25H15.028Z" fill="#2FC6DD"/>
<path d="M12.5257 21.25C12.6964 25.3878 13.7068 29.0494 15.2153 31.5516C11.0527 29.8255 8.02489 25.915 7.56172 21.25H12.5257Z" fill="#2FC6DD"/>
<path d="M12.5257 18.75C12.6964 14.6122 13.7068 10.9506 15.2153 8.44845C11.0527 10.1745 8.02489 14.085 7.56172 18.75H12.5257Z" fill="#2FC6DD"/>
<path fill-rule="evenodd" clip-rule="evenodd" d="M1.08993 5.46009C0 7.59921 0 10.3995 0 16V24C0 29.6005 0 32.4008 1.08993 34.5399C2.04867 36.4215 3.57847 37.9513 5.46009 38.9101C7.59921 40 10.3995 40 16 40H24C29.6005 40 32.4008 40 34.5399 38.9101C36.4215 37.9513 37.9513 36.4215 38.9101 34.5399C40 32.4008 40 29.6005 40 24V16C40 10.3995 40 7.59921 38.9101 5.46009C37.9513 3.57847 36.4215 2.04867 34.5399 1.08993C32.4008 0 29.6005 0 24 0H16C10.3995 0 7.59921 0 5.46009 1.08993C3.57847 2.04867 2.04867 3.57847 1.08993 5.46009ZM35 20C35 28.2843 28.2843 35 20 35C11.7157 35 5 28.2843 5 20C5 11.7157 11.7157 5 20 5C28.2843 5 35 11.7157 35 20Z" fill="#2FC6DD"/>
</svg>
